<svg width="500" height="501" viewBox="0 0 500 501" fill="none" xmlns="http://www.w3.org/2000/svg">
<g clip-path="url(#clip0_2001_2)">
<path d="M165.307 372.359C165.307 391.802 149.434 407.628 129.933 407.628C110.432 407.628 94.5589 391.802 94.5589 372.359C94.5589 352.916 110.432 337.09 129.933 337.09C149.434 337.09 165.307 352.916 165.307 372.359Z" fill="#E8362D"/>
<path d="M473.47 335.734C450.794 175.893 323.81 49.0605 163.266 26.4521C144.219 36.1737 127.212 48.8344 112.019 63.3037V97.4422C272.109 97.4422 402.268 227.44 402.268 386.829H436.508C451.021 371.681 463.492 354.499 473.47 335.734Z" fill="#E8362D"/>
<path d="M500 228.796C500 102.416 397.279 0 270.522 0C262.586 0 254.649 0.452166 246.939 1.3565L241.724 16.278C354.649 55.6164 444.218 144.919 483.674 257.283L499.093 252.083C499.32 244.622 500 236.935 500 228.796Z" fill="#E8362D"/>
<path d="M273.017 501C200.001 501 131.747 472.74 80.0465 421.193C28.3459 369.646 0.00133948 301.369 0.00133948 228.796C-0.225417 155.997 28.3459 87.7203 79.8197 36.1733L94.3322 50.6427C46.7132 98.1201 20.4094 161.197 20.4094 228.57C20.4094 295.943 46.7132 359.02 94.3322 406.497C141.951 453.975 205.216 480.2 272.79 480.2C340.363 480.2 403.628 453.975 451.247 406.497L465.76 420.967C414.513 472.514 345.805 501 273.017 501Z" fill="#E8362D"/>
<path d="M270.069 402.428C275.738 345.681 250.341 292.778 207.711 260.448C185.262 243.491 157.824 232.413 127.892 229.248C119.956 228.344 114.514 221.561 115.194 213.875C116.101 205.283 123.13 200.31 130.84 201.214C163.493 204.605 193.198 215.909 218.368 233.318C272.563 270.621 305.443 335.281 298.413 405.367C297.279 416.445 295.012 427.071 292.291 437.471L333.787 449.227C346.032 445.61 358.277 441.314 369.842 435.888C372.789 420.062 374.377 403.784 374.377 387.054C374.377 255.926 277.325 147.406 151.021 128.641C135.829 126.38 120.636 126.154 109.298 129.093C91.3843 133.389 75.9649 143.337 64.1735 156.676C50.3413 172.275 41.9513 192.849 41.9513 215.683C41.9513 255.474 68.2551 289.16 104.083 300.464C110.885 302.725 121.316 303.63 126.532 304.534H126.758C166.214 311.316 196.373 345.681 196.373 387.054C196.373 403.558 191.611 419.158 182.994 432.045L211.565 450.357C225.398 454.201 239.683 456.462 254.422 457.592C262.586 440.41 268.028 421.871 270.069 402.428Z" fill="#E8362D"/>
</g>
<defs>
<clipPath id="clip0_2001_2">
<rect width="500" height="501" fill="white"/>
</clipPath>
</defs>
</svg>
